<?xml version="1.0" encoding="utf-8"?>
<!-- Generator: Adobe Illustrator 16.2.1, SVG Export Plug-In . SVG Version: 6.00 Build 0)  -->
<!DOCTYPE svg PUBLIC "-//W3C//DTD SVG 1.1//EN" "http://www.w3.org/Graphics/SVG/1.1/DTD/svg11.dtd">
<svg version="1.1" id="Ebene_1" xmlns="http://www.w3.org/2000/svg" xmlns:xlink="http://www.w3.org/1999/xlink" x="0px" y="0px"
	 width="800px" height="800px" viewBox="0 0 800 800" enable-background="new 0 0 800 800" xml:space="preserve">
<g>
	<rect y="545.667" fill="#FFFFFF" width="800" height="254.333"/>
	<g>
		<path fill="#FF9D98" d="M586.352,453.387h-25.86v58.051c-13.565-22.961-31.888-42.777-53.636-58.061V346.259
			c0-59.229-48.015-107.245-107.245-107.245S292.366,287.03,292.366,346.259v107.118c-21.748,15.284-40.071,35.1-53.636,58.061
			v-58.051h-25.86v152.873C212.87,709.393,296.477,793,399.611,793s186.741-83.607,186.741-186.741v0l0,0V453.387z"/>
		<g>
			<path fill="#A66663" d="M535.774,478.479c0.12,2.744,0.202,5.499,0.202,8.273c0,103.134-83.606,186.741-186.741,186.741
				c-53.706,0-102.107-22.679-136.174-58.973C217.386,713.819,299.245,793,399.611,793c103.134,0,186.741-83.607,186.741-186.741
				C586.352,556.824,567.138,511.881,535.774,478.479z"/>
		</g>
		<path fill="none" stroke="#000000" stroke-width="10" stroke-miterlimit="10" d="M212.87,606.259
			C212.87,709.393,296.477,793,399.611,793s186.741-83.607,186.741-186.741"/>
		<path fill="none" stroke="#000000" stroke-width="10" stroke-miterlimit="10" d="M560.492,511.399
			c-13.563-22.949-31.897-42.744-53.637-58.022V346.259c0-59.229-48.015-107.245-107.245-107.245S292.366,287.03,292.366,346.259
			v107.118c-21.491,15.104-39.655,34.623-53.171,57.24"/>
		<g>
			<g>
				<path fill="#3DED93" stroke="#000000" stroke-width="10" stroke-miterlimit="10" d="M212.87,453.387V606.26"/>
				<path fill="#3DED93" stroke="#000000" stroke-width="10" stroke-miterlimit="10" d="M238.73,576.062V453.387"/>
			</g>
			<g>
				<path fill="#3DED93" stroke="#000000" stroke-width="10" stroke-miterlimit="10" d="M586.352,453.387v152.872"/>
				<path fill="#3DED93" stroke="#000000" stroke-width="10" stroke-miterlimit="10" d="M560.491,576.062V453.387"/>
			</g>
		</g>
	</g>
</g>
</svg>
