<?xml version="1.0" encoding="utf-8"?>
<!-- Generator: Adobe Illustrator 16.2.1, SVG Export Plug-In . SVG Version: 6.00 Build 0)  -->
<!DOCTYPE svg PUBLIC "-//W3C//DTD SVG 1.1//EN" "http://www.w3.org/Graphics/SVG/1.1/DTD/svg11.dtd">
<svg version="1.1" id="Ebene_1" xmlns="http://www.w3.org/2000/svg" xmlns:xlink="http://www.w3.org/1999/xlink" x="0px" y="0px"
	 width="800px" height="800px" viewBox="0 0 800 800" enable-background="new 0 0 800 800" xml:space="preserve">
<g>
	<path d="M336.651,350.012h16.415c17.854,0,23.902,2.88,23.902,23.327v24.382c0,12.959-3.839,20.639-23.902,20.639h-16.415V350.012z
		 M352.586,408.568c7.775,0,8.447-2.976,8.447-9.503v-28.126c0-9.12-0.384-11.135-8.447-11.135V408.568z"/>
	<path d="M421.511,399.737c0,15.647-9.599,19.966-20.158,19.966c-10.56,0-20.159-4.319-20.159-19.966v-31.102
		c0-15.646,9.599-19.966,20.159-19.966c10.559,0,20.158,4.32,20.158,19.966V399.737z M397.129,403.385
		c0,2.783,0.864,5.375,4.224,5.375s4.224-2.592,4.224-5.375v-38.397c0-2.784-0.864-5.376-4.224-5.376s-4.224,2.592-4.224,5.376
		V403.385z"/>
	<path d="M455.879,414.903c-1.728,1.92-4.032,3.168-6.528,3.84c-2.4,0.768-4.992,0.96-7.295,0.96
		c-10.463,0-16.319-4.319-16.319-19.966v-31.102c0-15.646,9.599-19.966,20.159-19.966c12.863,0,20.062,5.184,20.254,18.623
		l-0.096,7.2h-15.935v-9.503c0-2.784-0.864-5.376-4.224-5.376s-4.224,2.592-4.224,5.376v38.397c0,2.783,0.768,5.375,4.224,5.375
		c3.36,0,4.224-2.592,4.224-5.375v-9.12h-6.048v-10.367h21.982v34.461h-9.311L455.879,414.903z"/>
</g>
</svg>
