<?xml version="1.0" encoding="utf-8"?>
<!-- Generator: Adobe Illustrator 16.2.1, SVG Export Plug-In . SVG Version: 6.00 Build 0)  -->
<!DOCTYPE svg PUBLIC "-//W3C//DTD SVG 1.1//EN" "http://www.w3.org/Graphics/SVG/1.1/DTD/svg11.dtd">
<svg version="1.1" id="Ebene_1" xmlns="http://www.w3.org/2000/svg" xmlns:xlink="http://www.w3.org/1999/xlink" x="0px" y="0px"
	 width="800px" height="800px" viewBox="0 0 800 800" enable-background="new 0 0 800 800" xml:space="preserve">
<g>
	<g>
		<path fill="#3DED93" stroke="#000000" stroke-width="10" stroke-miterlimit="10" d="M293.145,276.64v107.117
			c0,59.229,48.015,107.245,107.245,107.245s107.245-48.016,107.245-107.245V276.64c48.073-33.785,79.496-89.661,79.496-152.883
			c0-103.134-83.606-186.74-186.741-186.74s-186.741,83.606-186.741,186.74C213.649,186.979,245.072,242.854,293.145,276.64z"/>
		<g>
			<circle cx="440.515" cy="371.256" r="10.25"/>
			<circle cx="360.265" cy="371.256" r="10.25"/>
		</g>
		<path fill="none" stroke="#000000" stroke-width="10" stroke-miterlimit="10" d="M293.145,276.64v107.117
			c0,59.229,48.015,107.245,107.245,107.245s107.245-48.016,107.245-107.245V276.64c48.073-33.785,79.496-89.661,79.496-152.883
			c0-103.134-83.606-186.74-186.741-186.74s-186.741,83.606-186.741,186.74C213.649,186.979,245.072,242.854,293.145,276.64z"/>
		
			<line fill="none" stroke="#000000" stroke-width="10" stroke-miterlimit="10" x1="440.515" y1="317.256" x2="360.265" y2="317.256"/>
		<g>
			<g>
				<path fill="#3DED93" stroke="#000000" stroke-width="10" stroke-miterlimit="10" d="M561.27,163.757v162.499
					c0,13.833-11.214,25.048-25.047,25.048c-7.141,0-12.93,5.789-12.93,12.93c0,7.142,5.789,12.931,12.93,12.931
					c28.115,0,50.908-22.793,50.908-50.908V123.757"/>
			</g>
			<g>
				<path fill="#3DED93" stroke="#000000" stroke-width="10" stroke-miterlimit="10" d="M239.509,163.758v162.499
					c0,13.833,11.214,25.047,25.047,25.047c7.141,0,12.93,5.789,12.93,12.931c0,7.141-5.789,12.93-12.93,12.93
					c-28.115,0-50.908-22.792-50.908-50.907V123.758"/>
			</g>
		</g>
		<g opacity="0.4">
			<path d="M264.226,251.538c-0.12-2.744-0.202-5.499-0.202-8.273c0-103.134,83.606-186.74,186.741-186.74
				c53.706,0,102.107,22.679,136.174,58.973c-4.324-99.3-86.183-178.48-186.549-178.48c-103.134,0-186.741,83.606-186.741,186.74
				C213.649,173.192,232.863,218.135,264.226,251.538z"/>
		</g>
	</g>
</g>
</svg>
