<?xml version="1.0" encoding="utf-8"?>
<!-- Generator: Adobe Illustrator 16.2.1, SVG Export Plug-In . SVG Version: 6.00 Build 0)  -->
<!DOCTYPE svg PUBLIC "-//W3C//DTD SVG 1.1//EN" "http://www.w3.org/Graphics/SVG/1.1/DTD/svg11.dtd">
<svg version="1.1" id="Ebene_1" xmlns="http://www.w3.org/2000/svg" xmlns:xlink="http://www.w3.org/1999/xlink" x="0px" y="0px"
	 width="800px" height="800px" viewBox="0 0 800 800" enable-background="new 0 0 800 800" xml:space="preserve">
<g>
	<path fill="#FFA6FF" stroke="#000000" stroke-width="10" stroke-miterlimit="10" d="M579.986,344.761
		c0-50.49-40.273-91.547-90.446-92.868c-6.419-21.676-26.471-37.494-50.229-37.494c-14.373,0-27.39,5.792-36.855,15.164
		c-16.326-26.704-45.75-44.529-79.34-44.529c-51.324,0-92.931,41.606-92.931,92.931c0,2.121,0.097,4.218,0.237,6.304
		c-0.08,0-0.158-0.006-0.237-0.006c-28.935,0-52.391,23.457-52.391,52.391c0,28.935,23.456,52.391,52.391,52.391
		c2.085,0,4.137-0.135,6.158-0.372c1.739,27.361,24.47,49.021,52.271,49.021h200.219l0.016-0.046
		C539.342,436.687,579.986,395.483,579.986,344.761z"/>
	<path fill="none" stroke="#000000" stroke-width="10" stroke-miterlimit="10" d="M579.986,344.761
		c0-50.49-40.273-91.547-90.446-92.868c-6.419-21.676-26.471-37.494-50.229-37.494c-14.373,0-27.39,5.792-36.855,15.164
		c-16.326-26.704-45.75-44.529-79.34-44.529c-51.324,0-92.931,41.606-92.931,92.931c0,2.121,0.097,4.218,0.237,6.304
		c-0.08,0-0.158-0.006-0.237-0.006c-28.935,0-52.391,23.457-52.391,52.391c0,28.935,23.456,52.391,52.391,52.391
		c2.085,0,4.137-0.135,6.158-0.372c1.739,27.361,24.47,49.021,52.271,49.021h200.219l0.016-0.046
		C539.342,436.687,579.986,395.483,579.986,344.761z"/>
	<path fill="none" stroke="#000000" stroke-width="10" stroke-miterlimit="10" d="M445.061,261.837
		c12.613-6.4,26.882-10.007,41.993-10.007c51.326,0,92.932,41.606,92.932,92.931s-41.606,92.932-92.932,92.932"/>
	<path fill="none" stroke="#000000" stroke-width="10" stroke-miterlimit="10" d="M378.889,288.686
		c8.812-6.727,19.819-10.722,31.761-10.722c28.935,0,52.391,23.456,52.391,52.391"/>
	<path fill="none" stroke="#000000" stroke-width="10" stroke-miterlimit="10" d="M230.183,277.964
		c0-51.324,41.607-92.931,92.931-92.931c51.325,0,92.931,41.606,92.931,92.931"/>
	<path fill="none" stroke="#000000" stroke-width="10" stroke-miterlimit="10" d="M273.878,365.567
		c-9.381,14.148-25.448,23.476-43.695,23.476c-28.935,0-52.391-23.457-52.391-52.391c0-28.934,23.456-52.391,52.391-52.391"/>
</g>
</svg>
