<?xml version="1.0" encoding="utf-8"?>
<!-- Generator: Adobe Illustrator 16.2.1, SVG Export Plug-In . SVG Version: 6.00 Build 0)  -->
<!DOCTYPE svg PUBLIC "-//W3C//DTD SVG 1.1//EN" "http://www.w3.org/Graphics/SVG/1.1/DTD/svg11.dtd">
<svg version="1.1" id="Ebene_1" xmlns="http://www.w3.org/2000/svg" xmlns:xlink="http://www.w3.org/1999/xlink" x="0px" y="0px"
	 width="800px" height="800px" viewBox="0 0 800 800" enable-background="new 0 0 800 800" xml:space="preserve">
<path d="M342.676,565.754c4.347,6.185,5.591,16.999,5.158,20.028c-0.505,3.536-4.236,9.005-6.549,11.588
	c-2.395,2.676-8.149,6.713-13.233,8.1c-4.837,1.321-11.355,0.493-15.455-0.371c-4.615-0.972-19.234-5.248-31.784-16.479
	c-1.074-0.961-1.963-1.784-2.682-2.468c-0.994,0.239-3.176,0.711-4.44,0.583c0,0,4.692,5.527,2.38,8.111
	c-3.004,3.357-11.131,1.274-19.267-2.49c-0.905,1.611-1.349,4.729-1.349,4.729s3.377,4.768,2.593,5.644
	c-0.661,0.739-4.235,1.112-6.958-1.324c-5.715-5.115-4.061-11.633-3.033-13.707c-3.729-2.248-6.988-4.57-9.138-6.494
	c0,0-3.282,0.886-5.133,0.727c-1.851-0.162-3.973-2.061-3.973-2.061s-7.274-7.007-8.806-8.545c-1.928-1.934-2.655-4.605-1.758-6.392
	c0.911-1.815,4.956-5.536,4.956-5.536c0.607-3.279,2-6.365,2-6.365s-5.098-10.159-7.76-16.908
	c-2.311-5.854-5.208-15.277-5.208-15.277s-0.455,0.309-1.054,0.452c-0.953,0.227-1.511-1.934-1.511-1.934s-1.852-7.081-2.491-11.703
	c-0.79-5.715-0.679-12.239-0.679-12.239s-1.038-11.93-0.858-17.054c0.103-2.899,1.244-6.033,1.244-6.033
	s-2.409-38.717,69.026-118.538c47.073-52.599,71.113-63.491,74.44-65.167c14.567-7.334,23.661-5.083,23.661-5.083
	s3.9-0.83,6.193-0.606c2.292,0.224,15.147,1.918,24.875,2.657c12.14,0.921,31.195,1.169,31.195,1.169
	c1.781,0.067,3.23,1.217,3.23,1.217s4.385-0.339,7.369-1.548c0.872-0.354,2.467-1.296,4.593-2.676
	c-0.268-0.23-0.563-0.688-0.397-1.546c0.271-1.417,0.405-2.961-1.302-4.488c-0.939-0.841-2.246-0.963-2.699-0.98l-0.105,0.429
	c-0.128,0.521-0.321,0.922-0.842,0.793l-0.558-0.491l-0.666,0.19l-0.5-0.478l-0.707,0.18l-0.46-0.466l-0.624,0.2l-0.542-0.487
	l-0.707,0.18l-0.543-0.487l-0.68,0.187c-0.521-0.129-0.506-0.573-0.377-1.094l0.128-0.523c-4.634-1.377-61.493-18.249-97.712-27.8
	l0.18-0.669c40.24,10.591,92.687,25.613,97.869,27.1l0.127-0.515c0.128-0.521,0.321-0.921,0.842-0.792l0.517,0.479l0.706-0.179
	l0.543,0.487l0.707-0.18l0.459,0.467l0.625-0.2l0.543,0.487l0.666-0.19l0.5,0.477l0.723-0.176c0.521,0.127,0.505,0.573,0.377,1.093
	l-0.101,0.409c0.494,0.159,2.548,0.936,4.592,3.345c0.432,0.507,1.03,1.17,1.877,1.43c0.68,0.208,1.509-0.043,1.964,0.842
	c15.844-10.885,45.876-33.589,50.714-36.956c24.235-16.867,37.375-25.05,46.891-28.998c2.967-1.231,9.889-3.624,16.028-0.457
	c0,0,32.189-27.979,49.159-16.115c0,0,5.872-0.436,12.424,5.428c10.98,9.828,11.071,19.382,11.071,19.382l3.218-0.621
	c1.464-0.282,2.48,0.567,2.48,0.567l3.65-0.923c1.107-0.279,2.569,0.008,3.533,2.366c0.648,1.589,0.542,3.105-0.468,3.863
	l-2.967,2.204c0,0,0.299,1.637-0.707,2.275l-2.5,1.585c0,0,2.976,6.423,5.901,3.153l2.123-2.373
	c5.087-5.684,5.984-4.889,12.863-5.271c2.622-0.145,5.687,2.93,5.687,2.93l15.912,15.086c0,0,5.155,5.013-0.254,11.057
	c-2.726,3.045-5.344,4.857-5.344,4.857s-0.26,5.73-0.721,12.317c-0.468,6.7-1.159,14.667-1.159,14.667
	c-0.273,1.418-0.919,2.418-0.919,2.418s7.844,7.02,2.682,12.787c-1.528,1.708-4.74,3.858-5.483,3.9
	c-1.137,0.063-3.655-1.858-3.655-1.858s-6.647,39.088-20.522,54.591c-11.81,13.196-21.013,6.953-21.013,6.953
	s-1.142,3.133-2.546,4.702c-4.03,4.503-10.319,4.339-13.438,3.918c2.965,3.81,9.928,13.193,11.571,19.338
	c5.384,20.143-0.009,33.063-4.197,39.785c-4.277,6.865-14.282,14.473-23.575,19.285c-12.968,6.716-24.797,6.725-29.805,6.564
	c-5.008-0.161-30.483-2.52-48.663-18.789c-1.851-1.656-4.445-4.092-6.651-6.186c-1.035,1.363-2.552,3.594-4.066,6.648
	c-1.187,2.395-1.628,5.439-1.628,5.439l0.692,0.623c1.477,1.321,3.234,7.71-0.565,11.956
	c-10.653,11.903-33.959,21.789-33.959,21.789c-3.443,1.599-5.46-0.398-5.46-0.398s-0.987-0.945-1.97-0.269
	c0,0-42.517,31.127-71.107,48.872C380.034,545.377,348.667,562.498,342.676,565.754z"/>
</svg>
